<svg width="8" height="8" viewBox="0 0 8 8" fill="none" xmlns="http://www.w3.org/2000/svg">
<path d="M3.00002 6.33333C3.00002 6.61333 3.04336 6.88667 3.12336 7.14C1.84336 6.69667 0.876691 5.52 0.776691 4.14333C0.676691 2.68 1.52002 1.31333 2.88336 0.74C3.23669 0.593333 3.41669 0.7 3.49336 0.776667C3.56669 0.85 3.67002 1.02667 3.52336 1.36333C3.37336 1.71 3.30002 2.07667 3.30002 2.45667C3.30336 3.13667 3.57002 3.76667 4.00336 4.25C3.39336 4.73667 3.00002 5.49 3.00002 6.33333Z" fill="#F1F1EC"/>
<path opacity="0.4" d="M7.07 5.90667C6.41 6.80333 5.36333 7.33 4.24667 7.33C4.19333 7.33 4.14 7.32667 4.08667 7.32333C3.75333 7.31 3.43 7.24667 3.12333 7.14C3.04333 6.88667 3 6.61333 3 6.33333C3 5.49 3.39333 4.73667 4.00333 4.25C4.49333 4.8 5.19667 5.15667 5.97333 5.19C6.18333 5.2 6.39333 5.18333 6.6 5.14667C6.97333 5.08 7.12333 5.22 7.17667 5.31C7.23333 5.4 7.29333 5.59667 7.07 5.90667Z" fill="#F1F1EC"/>
</svg>
