<svg width="6" height="8" viewBox="0 0 6 8" fill="none" xmlns="http://www.w3.org/2000/svg">
<path fill-rule="evenodd" clip-rule="evenodd" d="M2.64645 0.146447C2.84171 -0.0488155 3.15829 -0.0488155 3.35355 0.146447L5.35355 2.14645C5.54882 2.34171 5.54882 2.65829 5.35355 2.85355C5.15829 3.04882 4.84171 3.04882 4.64645 2.85355L3 1.20711L1.35355 2.85355C1.15829 3.04882 0.841709 3.04882 0.646447 2.85355C0.451184 2.65829 0.451184 2.34171 0.646447 2.14645L2.64645 0.146447ZM0.646447 5.14645C0.841709 4.95118 1.15829 4.95118 1.35355 5.14645L3 6.79289L4.64645 5.14645C4.84171 4.95118 5.15829 4.95118 5.35355 5.14645C5.54882 5.34171 5.54882 5.65829 5.35355 5.85355L3.35355 7.85355C3.15829 8.04882 2.84171 8.04882 2.64645 7.85355L0.646447 5.85355C0.451184 5.65829 0.451184 5.34171 0.646447 5.14645Z"/>
</svg>
