<svg width="8" height="8" viewBox="0 0 8 8" fill="none" xmlns="http://www.w3.org/2000/svg">
<path d="M6.79956 0H3.99956C3.68159 0.000928644 3.3769 0.127655 3.15206 0.352498C2.92722 0.57734 2.80049 0.882026 2.79956 1.2V3.6H5.19956C5.30565 3.6 5.40739 3.64214 5.4824 3.71716C5.55742 3.79217 5.59956 3.89391 5.59956 4C5.59956 4.10609 5.55742 4.20783 5.4824 4.28284C5.40739 4.35786 5.30565 4.4 5.19956 4.4H2.79956V6.8C2.80049 7.11797 2.92722 7.42266 3.15206 7.6475C3.3769 7.87234 3.68159 7.99907 3.99956 8H6.79956C7.11754 7.99907 7.42222 7.87234 7.64706 7.6475C7.87191 7.42266 7.99863 7.11797 7.99956 6.8V1.2C7.99863 0.882026 7.87191 0.57734 7.64706 0.352498C7.42222 0.127655 7.11754 0.000928644 6.79956 0Z" fill="#F1F1EC"/>
<path d="M1.3635 3.6L1.8835 3.084C1.95831 3.00857 2.00019 2.90658 1.99998 2.80034C1.99976 2.6941 1.95746 2.59228 1.88234 2.51716C1.80722 2.44204 1.70539 2.39974 1.59916 2.39952C1.49292 2.3993 1.39092 2.44119 1.3155 2.516L0.115496 3.716C0.0414434 3.79199 0 3.8939 0 4C0 4.10611 0.0414434 4.20801 0.115496 4.284L1.3155 5.484C1.39133 5.55836 1.49329 5.60001 1.5995 5.60001C1.7057 5.60001 1.80767 5.55836 1.8835 5.484C1.95844 5.40848 2.00049 5.3064 2.00049 5.2C2.00049 5.09361 1.95844 4.99152 1.8835 4.916L1.3635 4.4H2.7995V3.6H1.3635Z" fill="#F1F1EC"/>
</svg>
