<svg width="21" height="27" viewBox="0 0 21 27" fill="none" xmlns="http://www.w3.org/2000/svg">
<path fill-rule="evenodd" clip-rule="evenodd" d="M10.3091 0C16.0026 0 20.6182 4.61554 20.6182 10.3091C20.6182 11.0041 20.5494 11.683 20.4183 12.3394C19.5084 19.1961 10.3633 27 10.3633 27C10.3633 27 2.58066 20.3588 0.660057 13.9465C0.233431 12.8154 0 11.5895 0 10.3091C0 4.61554 4.61554 0 10.3091 0Z"/>
<path d="M14.2364 10.3091C14.2364 8.14012 12.4781 6.38182 10.3091 6.38182C8.14012 6.38182 6.38182 8.14012 6.38182 10.3091C6.38182 12.4781 8.14012 14.2364 10.3091 14.2364C12.4781 14.2364 14.2364 12.4781 14.2364 10.3091Z" fill="white"/>
</svg>
