<svg width="11" height="11" viewBox="0 0 11 11" fill="none" xmlns="http://www.w3.org/2000/svg">
<path d="M10.0833 3.57958V6.37083L9.33624 5.72916C8.97874 5.42208 8.40124 5.42208 8.04374 5.72916L6.13707 7.36541C5.77957 7.6725 5.20207 7.6725 4.84457 7.36541L4.68874 7.23708C4.36332 6.95291 3.84541 6.92541 3.47874 7.17291L1.22374 8.68542L1.17332 8.72208C1.00374 8.35541 0.916656 7.92 0.916656 7.42041V3.57958C0.916656 1.91125 1.91124 0.916664 3.57957 0.916664H7.42041C9.08874 0.916664 10.0833 1.91125 10.0833 3.57958Z" fill="white"/>
<path d="M4.12501 4.7575C4.72746 4.7575 5.21585 4.26912 5.21585 3.66667C5.21585 3.06422 4.72746 2.57584 4.12501 2.57584C3.52256 2.57584 3.03418 3.06422 3.03418 3.66667C3.03418 4.26912 3.52256 4.7575 4.12501 4.7575Z" fill="#333333"/>
<path d="M10.0833 6.37083V7.42042C10.0833 9.08875 9.08876 10.0833 7.42042 10.0833H3.57959C2.41084 10.0833 1.56751 9.59292 1.17334 8.72208L1.22376 8.68542L3.47876 7.17292C3.84542 6.92542 4.36334 6.95292 4.68876 7.23708L4.84459 7.36542C5.20209 7.6725 5.77959 7.6725 6.13709 7.36542L8.04376 5.72917C8.40126 5.42208 8.97876 5.42208 9.33626 5.72917L10.0833 6.37083Z" fill="#333333"/>
</svg>
