<svg width="8" height="8" viewBox="0 0 8 8" fill="none" xmlns="http://www.w3.org/2000/svg">
<path d="M6.69996 3.07333C6.09663 3.07333 5.84996 2.64667 6.14996 2.12333C6.32329 1.82 6.21996 1.43333 5.91663 1.26L5.33996 0.93C5.07663 0.773333 4.73663 0.866667 4.57996 1.13L4.54329 1.19333C4.24329 1.71667 3.74996 1.71667 3.44663 1.19333L3.40996 1.13C3.25996 0.866667 2.91996 0.773333 2.65663 0.93L2.07996 1.26C1.77663 1.43333 1.67329 1.82333 1.84663 2.12667C2.14996 2.64667 1.90329 3.07333 1.29996 3.07333C0.953293 3.07333 0.666626 3.35667 0.666626 3.70667V4.29333C0.666626 4.64 0.949959 4.92667 1.29996 4.92667C1.90329 4.92667 2.14996 5.35333 1.84663 5.87667C1.67329 6.18 1.77663 6.56667 2.07996 6.74L2.65663 7.07C2.91996 7.22667 3.25996 7.13333 3.41663 6.87L3.45329 6.80667C3.75329 6.28333 4.24663 6.28333 4.54996 6.80667L4.58663 6.87C4.74329 7.13333 5.08329 7.22667 5.34663 7.07L5.92329 6.74C6.22663 6.56667 6.32996 6.17667 6.15663 5.87667C5.85329 5.35333 6.09996 4.92667 6.70329 4.92667C7.04996 4.92667 7.33663 4.64333 7.33663 4.29333V3.70667C7.33329 3.36 7.04996 3.07333 6.69996 3.07333ZM3.99996 5.08333C3.40329 5.08333 2.91663 4.59667 2.91663 4C2.91663 3.40333 3.40329 2.91667 3.99996 2.91667C4.59663 2.91667 5.08329 3.40333 5.08329 4C5.08329 4.59667 4.59663 5.08333 3.99996 5.08333Z" fill="#F1F1EC"/>
</svg>
