<svg width="190" height="20" viewBox="0 0 190 20" fill="none" xmlns="http://www.w3.org/2000/svg">
<g clip-path="url(#clip0_190_77)">
<path d="M26.1257 0.679749C26.3288 0.679749 26.4611 0.7357 26.5288 0.847601C26.5965 0.962612 26.5903 1.10871 26.5103 1.28588L18.673 18.8327C18.4976 19.2151 18.2606 19.4047 17.9652 19.4047H17.916C17.6114 19.4047 17.3714 19.2151 17.196 18.8327L13.4819 10.6981L9.85096 18.8327C9.67556 19.2151 9.43863 19.4047 9.14015 19.4047H9.09399C8.77398 19.4047 8.53089 19.2151 8.37088 18.8327L0.545849 1.29832C0.465844 1.11181 0.462767 0.962612 0.539694 0.847601C0.616622 0.7357 0.755091 0.679749 0.955101 0.679749H3.51524C3.67525 0.679749 3.80756 0.723266 3.91218 0.813409C4.0168 0.900444 4.09681 1.01235 4.15219 1.13979L9.12784 12.7869L14.0943 1.13979C14.1589 1.00302 14.242 0.891119 14.3466 0.807192C14.4512 0.720158 14.5712 0.679749 14.7066 0.679749H17.3037C17.5037 0.679749 17.6391 0.7357 17.7068 0.847601C17.7745 0.962612 17.7683 1.10871 17.6883 1.28588L15.2605 6.71313L17.9406 13.2345L22.9163 1.13979C22.9747 1.00302 23.0547 0.891119 23.1624 0.807192C23.2732 0.720158 23.3932 0.679749 23.5317 0.679749H26.1257Z" fill="#CE2D4F"/>
<path d="M51.6023 18.5312C51.6823 18.7084 51.6854 18.8545 51.6146 18.9726C51.5407 19.0907 51.4054 19.1498 51.2053 19.1498H48.6206C48.4852 19.1498 48.3621 19.1032 48.2544 19.0099C48.1467 18.9167 48.0636 18.8048 48.0083 18.6742L47.2728 16.8776H38.8816L38.1493 18.6649C38.0939 18.7923 38.0139 18.9042 37.9093 18.9975C37.8046 19.0907 37.6754 19.1374 37.5246 19.1374H34.9522C34.7522 19.1374 34.6137 19.0814 34.5368 18.9664C34.4598 18.8545 34.4629 18.7053 34.5429 18.5188L42.3218 0.909792C42.3864 0.763697 42.4787 0.648687 42.6049 0.564761C42.728 0.477726 42.8541 0.437317 42.9834 0.437317H43.1372C43.2819 0.437317 43.4142 0.480834 43.528 0.570978C43.6449 0.658012 43.7342 0.776131 43.7988 0.922225L51.6023 18.5312ZM40.0724 13.9402H46.0728L43.0788 6.59192L40.0724 13.9402Z" fill="#CE2D4F"/>
<path d="M74.3481 0.654877C74.5327 0.654877 74.6589 0.710828 74.7327 0.825838C74.8035 0.93774 74.7974 1.09627 74.7081 1.29831L68.7201 11.8264V18.5903C68.7201 18.954 68.5478 19.1373 68.2062 19.1373H65.8738C65.5046 19.1373 65.3199 18.954 65.3199 18.5903V11.8016L59.3442 1.29831C59.2642 1.08694 59.2642 0.928414 59.3381 0.819621C59.415 0.710827 59.5442 0.654877 59.7289 0.654877H62.4582C62.5782 0.654877 62.6983 0.698394 62.8121 0.788537C62.929 0.87868 63.0244 0.990583 63.0952 1.12735L67.0277 8.32949L70.9571 1.11492C71.1264 0.807187 71.3449 0.654877 71.6187 0.654877H74.3481Z" fill="#CE2D4F"/>
<path d="M89.8207 0.679749C90.99 0.679749 92.0639 0.860035 93.0425 1.22061C94.021 1.58118 94.8702 2.08785 95.5903 2.74372C96.3134 3.39959 96.8703 4.17358 97.2673 5.06257C97.6642 5.95468 97.8642 6.92761 97.8642 7.99067C97.8642 9.05063 97.6642 10.0236 97.2673 10.9094C96.8703 11.7953 96.3134 12.56 95.5903 13.2065C94.8702 13.85 94.021 14.3473 93.0425 14.6986C92.0639 15.0498 90.99 15.227 89.8207 15.227H87.4175V18.6027C87.4175 18.755 87.3683 18.8856 87.2729 18.985C87.1775 19.0876 87.0391 19.1373 86.8637 19.1373H84.5558C84.3866 19.1373 84.2543 19.0876 84.1589 18.9913C84.0635 18.8949 84.0143 18.7643 84.0143 18.6027V1.21439C84.0143 1.05275 84.0635 0.922203 84.1651 0.825843C84.2635 0.726374 84.3958 0.679749 84.5558 0.679749H85.7928C86.0421 0.679749 86.2667 0.679749 86.4667 0.679749C86.6667 0.679749 86.8206 0.679749 86.9252 0.679749H89.8207ZM89.593 12.215C90.3069 12.215 90.9593 12.1155 91.5531 11.9104C92.1439 11.7083 92.6609 11.4192 93.0978 11.0369C93.5348 10.6577 93.8733 10.207 94.1133 9.69096C94.3533 9.17186 94.4733 8.59681 94.4733 7.96581C94.4733 7.34102 94.3533 6.77219 94.1133 6.25309C93.8733 5.73399 93.5348 5.28327 93.0978 4.89783C92.6609 4.5155 92.1439 4.21709 91.5531 4.00572C90.9593 3.79435 90.3069 3.69178 89.593 3.69178H87.4175V12.215H89.593Z" fill="#CE2D4F"/>
<path d="M106.75 9.93342C106.75 8.86413 106.904 7.8508 107.218 6.89031C107.532 5.92982 107.975 5.05636 108.553 4.26683C109.129 3.4773 109.809 2.79345 110.596 2.21529C111.381 1.63713 112.252 1.18952 113.203 0.872469C114.157 0.558522 115.163 0.399994 116.221 0.399994C117.28 0.399994 118.286 0.558522 119.24 0.872469C120.194 1.18952 121.062 1.63713 121.846 2.21529C122.634 2.79345 123.314 3.4773 123.892 4.26683C124.468 5.05636 124.914 5.92982 125.225 6.89031C125.539 7.8508 125.696 8.86413 125.696 9.93342C125.696 10.9996 125.539 12.0129 125.225 12.9672C124.914 13.9246 124.468 14.7949 123.892 15.5783C123.314 16.3647 122.634 17.0454 121.846 17.6205C121.062 18.1924 120.194 18.6369 119.24 18.9477C118.286 19.2617 117.28 19.4171 116.221 19.4171C115.163 19.4171 114.157 19.2617 113.203 18.9477C112.252 18.6369 111.381 18.1924 110.596 17.6205C109.809 17.0454 109.129 16.3647 108.553 15.5783C107.975 14.7949 107.532 13.9246 107.218 12.9672C106.904 12.0129 106.75 10.9996 106.75 9.93342ZM110.138 9.93342C110.138 10.7913 110.292 11.5871 110.602 12.3176C110.91 13.0511 111.344 13.6915 111.901 14.2448C112.458 14.7949 113.104 15.2239 113.843 15.5316C114.578 15.8394 115.372 15.9917 116.221 15.9917C117.08 15.9917 117.874 15.8394 118.609 15.5316C119.341 15.2239 119.985 14.7949 120.541 14.2448C121.102 13.6915 121.532 13.0511 121.84 12.3176C122.151 11.5871 122.305 10.7913 122.305 9.93342C122.305 9.06618 122.148 8.26111 121.834 7.52131C121.523 6.78151 121.089 6.13497 120.538 5.57857C119.985 5.02527 119.338 4.5901 118.603 4.27926C117.864 3.96842 117.071 3.813 116.221 3.813C115.372 3.813 114.578 3.96842 113.843 4.27926C113.104 4.5901 112.458 5.02527 111.907 5.57857C111.353 6.13497 110.919 6.78151 110.609 7.52131C110.295 8.26111 110.138 9.06618 110.138 9.93342Z" fill="#CE2D4F"/>
<path d="M139.112 1.06829V18.7364C139.112 19.0037 138.977 19.1373 138.703 19.1373H136.118C135.854 19.1373 135.721 19.0037 135.721 18.7364V1.06829C135.721 0.791646 135.854 0.654877 136.118 0.654877H138.703C138.977 0.654877 139.112 0.791646 139.112 1.06829Z" fill="#CE2D4F"/>
<path d="M166.09 0.654904C166.364 0.654904 166.499 0.788564 166.499 1.05589V18.7986C166.499 18.9757 166.453 19.1156 166.36 19.2151C166.268 19.3177 166.157 19.3674 166.028 19.3674H166.007C165.853 19.3674 165.724 19.3239 165.622 19.2337C165.517 19.1467 165.397 19.0441 165.259 18.9291L153.637 7.78244V18.7364C153.637 19.0037 153.504 19.1374 153.24 19.1374H150.643C150.369 19.1374 150.233 19.0037 150.233 18.7364V0.971959C150.233 0.81654 150.277 0.689096 150.36 0.586519C150.443 0.487051 150.55 0.437317 150.68 0.437317H150.726C150.855 0.437317 150.966 0.480834 151.064 0.570978C151.16 0.658012 151.27 0.760589 151.4 0.872491L163.108 12.0689V1.05589C163.108 0.788564 163.24 0.654904 163.505 0.654904H166.09Z" fill="#CE2D4F"/>
<path d="M176.152 3.13227V1.21439C176.152 0.856926 176.33 0.679749 176.681 0.679749H189.195C189.356 0.679749 189.482 0.726374 189.574 0.825843C189.666 0.922203 189.712 1.05275 189.712 1.21439V3.13227C189.712 3.49595 189.54 3.67934 189.195 3.67934H184.617V18.6027C184.617 18.9602 184.435 19.1373 184.075 19.1373H181.755C181.401 19.1373 181.226 18.9602 181.226 18.6027V3.67934H176.681C176.521 3.67934 176.395 3.63272 176.296 3.53946C176.201 3.44621 176.152 3.30944 176.152 3.13227Z" fill="#CE2D4F"/>
</g>
<defs>
<clipPath id="clip0_190_77">
<rect width="190" height="20" fill="white"/>
</clipPath>
</defs>
</svg>
