<svg width="132" height="34" viewBox="0 0 132 34" fill="none" xmlns="http://www.w3.org/2000/svg">
<mask id="mask0_161_394" style="mask-type:luminance" maskUnits="userSpaceOnUse" x="1" y="1" width="130" height="28">
<path d="M1.70323 1.7H130.297V28.071H1.70323V1.7Z" fill="white"/>
</mask>
<g mask="url(#mask0_161_394)">
<path d="M129.657 26.5743C118.418 26.5743 109.67 21.7836 103.285 18.2891C99.2382 16.0744 96.0411 14.3213 93.3084 14.2164C86.9725 13.9623 80.5153 16.0558 74.7745 18.5642C72.6416 17.1118 70.4666 15.5755 68.308 14.0486C61.0153 8.89419 53.4753 3.56031 48.0005 1.88648C47.9842 1.87949 47.9632 1.87949 47.9445 1.87716C47.9352 1.87249 47.9235 1.87249 47.9142 1.87016C45.4825 1.23373 41.205 4.58606 34.7664 9.64252C25.6698 16.7878 13.2081 26.5743 2.34499 26.5743C1.99027 26.5743 1.70323 26.8587 1.70323 27.2084C1.70323 27.5604 1.99027 27.8448 2.34499 27.8448C13.6515 27.8448 26.3139 17.9021 35.5599 10.6426C40.7942 6.53031 45.7346 2.65113 47.5618 3.09406C51.4917 5.69573 52.3645 7.48845 52.3995 8.53052C52.4252 9.34645 51.9748 10.0901 51.0273 10.7988C48.1009 12.9948 46.4977 15.797 46.5117 18.6924C46.5257 21.3593 47.9679 23.8864 50.5699 25.8003C52.5022 27.2177 54.2711 27.8751 56.208 27.8751C56.4577 27.8751 56.7051 27.8658 56.9594 27.8425C59.3141 27.6444 62.7166 25.9146 67.0221 23.7232C69.3208 22.5506 71.8948 21.2428 74.6392 20.0235C81.3251 24.5531 87.3763 28.0523 91.6912 28.0523C92.3189 28.0523 92.9093 27.9777 93.4554 27.8215C95.9104 27.1315 98.6991 25.3994 99.1589 22.6112C99.4086 21.0726 98.9628 18.788 95.9151 16.0837C97.8357 16.7714 100.067 17.9814 102.666 19.4034C109.173 22.9656 118.089 27.8448 129.657 27.8448C130.01 27.8448 130.297 27.5604 130.297 27.2084C130.297 26.8587 130.012 26.5743 129.657 26.5743ZM66.4387 22.5879C62.4249 24.6324 58.9547 26.3971 56.8521 26.5743C54.9245 26.7352 53.2676 26.2013 51.3307 24.7769C49.0274 23.0844 47.8022 20.977 47.7929 18.6854C47.7789 16.2026 49.2024 13.7618 51.7974 11.8129C53.0856 10.8501 53.7157 9.72877 53.676 8.49088C53.6387 7.32993 52.9992 6.12234 51.7671 4.84482C56.467 7.23668 62.0841 11.2091 67.5659 15.086C69.5402 16.4847 71.4958 17.8648 73.4047 19.175C70.9053 20.3196 68.5554 21.5132 66.4387 22.5879ZM97.894 22.4037C97.5323 24.6067 95.089 26.0381 93.1077 26.5976C89.3972 27.6374 83.0007 24.0892 76.0254 19.4151C81.3811 17.1398 87.3016 15.3168 93.0704 15.4869C96.5685 17.8974 98.2417 20.2893 97.894 22.4037Z" fill="#333333"/>
</g>
<path d="M23.4074 22.2699C23.5321 22.2699 23.6133 22.3038 23.6549 22.3718C23.6964 22.4416 23.6927 22.5303 23.6435 22.6379L18.8318 33.2913C18.7241 33.5234 18.5786 33.6386 18.3973 33.6386H18.367C18.18 33.6386 18.0327 33.5234 17.925 33.2913L15.6447 28.3524L13.4155 33.2913C13.3078 33.5234 13.1623 33.6386 12.9791 33.6386H12.9507C12.7543 33.6386 12.605 33.5234 12.5068 33.2913L7.70257 22.6454C7.65345 22.5322 7.65156 22.4416 7.69879 22.3718C7.74602 22.3038 7.83104 22.2699 7.95383 22.2699H9.52564C9.62388 22.2699 9.70511 22.2963 9.76934 22.351C9.83358 22.4038 9.88269 22.4718 9.9167 22.5492L12.9715 29.6206L16.0207 22.5492C16.0603 22.4661 16.1113 22.3982 16.1756 22.3472C16.2398 22.2944 16.3135 22.2699 16.3966 22.2699H17.9911C18.1139 22.2699 18.197 22.3038 18.2386 22.3718C18.2801 22.4416 18.2764 22.5303 18.2272 22.6379L16.7367 25.933L18.3821 29.8924L21.437 22.5492C21.4729 22.4661 21.522 22.3982 21.5881 22.3472C21.6561 22.2944 21.7298 22.2699 21.8148 22.2699H23.4074Z" fill="#CE2D4F"/>
<path d="M39.0488 33.1082C39.098 33.2158 39.0999 33.3045 39.0564 33.3762C39.0111 33.4479 38.9279 33.4838 38.8051 33.4838H37.2182C37.1351 33.4838 37.0595 33.4555 36.9934 33.3989C36.9273 33.3423 36.8763 33.2743 36.8423 33.1951L36.3908 32.1042H31.2389L30.7893 33.1894C30.7553 33.2668 30.7062 33.3347 30.642 33.3913C30.5777 33.4479 30.4984 33.4763 30.4058 33.4763H28.8265C28.7037 33.4763 28.6186 33.4423 28.5714 33.3725C28.5242 33.3045 28.5261 33.2139 28.5752 33.1007L33.3511 22.4095C33.3907 22.3208 33.4474 22.251 33.5249 22.2C33.6004 22.1472 33.6779 22.1227 33.7572 22.1227H33.8517C33.9405 22.1227 34.0217 22.1491 34.0916 22.2038C34.1634 22.2566 34.2182 22.3284 34.2579 22.4171L39.0488 33.1082ZM31.9701 30.3208H35.654L33.8158 25.8594L31.9701 30.3208Z" fill="#CE2D4F"/>
<path d="M53.0137 22.2547C53.1271 22.2547 53.2045 22.2887 53.2499 22.3585C53.2933 22.4265 53.2895 22.5227 53.2347 22.6454L49.5584 29.0375V33.1441C49.5584 33.3649 49.4526 33.4762 49.2429 33.4762H47.8109C47.5842 33.4762 47.4708 33.3649 47.4708 33.1441V29.0224L43.802 22.6454C43.7529 22.5171 43.7529 22.4208 43.7983 22.3548C43.8455 22.2887 43.9248 22.2547 44.0382 22.2547H45.7139C45.7876 22.2547 45.8612 22.2812 45.9311 22.3359C46.0029 22.3906 46.0615 22.4586 46.105 22.5416L48.5193 26.9143L50.9318 22.5341C51.0357 22.3472 51.1699 22.2547 51.338 22.2547H53.0137Z" fill="#CE2D4F"/>
<path d="M62.5132 22.2699C63.2311 22.2699 63.8904 22.3793 64.4912 22.5982C65.0919 22.8171 65.6134 23.1248 66.0554 23.523C66.4994 23.9212 66.8413 24.3911 67.085 24.9309C67.3287 25.4725 67.4515 26.0632 67.4515 26.7086C67.4515 27.3522 67.3287 27.9429 67.085 28.4807C66.8413 29.0186 66.4994 29.4829 66.0554 29.8754C65.6134 30.2661 65.0919 30.568 64.4912 30.7813C63.8904 30.9945 63.2311 31.1021 62.5132 31.1021H61.0377V33.1516C61.0377 33.2441 61.0075 33.3234 60.949 33.3838C60.8904 33.4461 60.8054 33.4763 60.6977 33.4763H59.2808C59.1769 33.4763 59.0957 33.4461 59.0371 33.3876C58.9785 33.329 58.9483 33.2498 58.9483 33.1516V22.5945C58.9483 22.4963 58.9785 22.4171 59.0409 22.3586C59.1013 22.2982 59.1826 22.2699 59.2808 22.2699H60.0403C60.1933 22.2699 60.3312 22.2699 60.454 22.2699C60.5768 22.2699 60.6712 22.2699 60.7355 22.2699H62.5132ZM62.3734 29.2734C62.8117 29.2734 63.2122 29.213 63.5768 29.0884C63.9395 28.9658 64.2569 28.7902 64.5252 28.5581C64.7934 28.3279 65.0013 28.0542 65.1486 27.7409C65.296 27.4258 65.3697 27.0766 65.3697 26.6935C65.3697 26.3142 65.296 25.9688 65.1486 25.6537C65.0013 25.3385 64.7934 25.0648 64.5252 24.8308C64.2569 24.5987 63.9395 24.4175 63.5768 24.2892C63.2122 24.1609 62.8117 24.0986 62.3734 24.0986H61.0377V29.2734H62.3734Z" fill="#CE2D4F"/>
<path d="M72.907 27.8882C72.907 27.2389 73.0014 26.6237 73.1941 26.0406C73.3868 25.4574 73.6589 24.9271 74.014 24.4477C74.3673 23.9684 74.7848 23.5532 75.2685 23.2022C75.7502 22.8511 76.2848 22.5794 76.8686 22.3869C77.4542 22.1963 78.072 22.1 78.7219 22.1C79.3718 22.1 79.9895 22.1963 80.5752 22.3869C81.1608 22.5794 81.6936 22.8511 82.1753 23.2022C82.659 23.5532 83.0765 23.9684 83.4316 24.4477C83.7849 24.9271 84.0588 25.4574 84.2497 26.0406C84.4423 26.6237 84.5387 27.2389 84.5387 27.8882C84.5387 28.5355 84.4423 29.1507 84.2497 29.7301C84.0588 30.3114 83.7849 30.8398 83.4316 31.3154C83.0765 31.7928 82.659 32.2062 82.1753 32.5553C81.6936 32.9025 81.1608 33.1724 80.5752 33.3611C79.9895 33.5517 79.3718 33.6461 78.7219 33.6461C78.072 33.6461 77.4542 33.5517 76.8686 33.3611C76.2848 33.1724 75.7502 32.9025 75.2685 32.5553C74.7848 32.2062 74.3673 31.7928 74.014 31.3154C73.6589 30.8398 73.3868 30.3114 73.1941 29.7301C73.0014 29.1507 72.907 28.5355 72.907 27.8882ZM74.987 27.8882C74.987 28.409 75.0814 28.8922 75.2722 29.3357C75.4611 29.7811 75.7275 30.1698 76.0695 30.5058C76.4114 30.8398 76.8081 31.1002 77.2615 31.2871C77.7131 31.4739 78.2005 31.5664 78.7219 31.5664C79.249 31.5664 79.7364 31.4739 80.1879 31.2871C80.6375 31.1002 81.0324 30.8398 81.3743 30.5058C81.7181 30.1698 81.9826 29.7811 82.1715 29.3357C82.3624 28.8922 82.4568 28.409 82.4568 27.8882C82.4568 27.3616 82.3605 26.8728 82.1678 26.4237C81.977 25.9745 81.7106 25.582 81.3724 25.2441C81.0324 24.9082 80.6356 24.644 80.1841 24.4553C79.7307 24.2666 79.2433 24.1722 78.7219 24.1722C78.2005 24.1722 77.7131 24.2666 77.2615 24.4553C76.8081 24.644 76.4114 24.9082 76.0732 25.2441C75.7332 25.582 75.4668 25.9745 75.276 26.4237C75.0833 26.8728 74.987 27.3616 74.987 27.8882Z" fill="#CE2D4F"/>
<path d="M92.7759 22.5057V33.2328C92.7759 33.3951 92.6928 33.4762 92.5246 33.4762H90.9377C90.7753 33.4762 90.694 33.3951 90.694 33.2328V22.5057C90.694 22.3378 90.7753 22.2547 90.9377 22.2547H92.5246C92.6928 22.2547 92.7759 22.3378 92.7759 22.5057Z" fill="#CE2D4F"/>
<path d="M109.339 22.2548C109.507 22.2548 109.59 22.3359 109.59 22.4982V33.2705C109.59 33.3781 109.562 33.463 109.505 33.5234C109.448 33.5857 109.38 33.6159 109.301 33.6159H109.288C109.193 33.6159 109.114 33.5895 109.052 33.5348C108.987 33.4819 108.914 33.4196 108.829 33.3498L101.693 26.5822V33.2328C101.693 33.3951 101.612 33.4763 101.45 33.4763H99.8551C99.6869 33.4763 99.6038 33.3951 99.6038 33.2328V22.4473C99.6038 22.3529 99.6303 22.2755 99.6813 22.2132C99.7323 22.1528 99.7984 22.1227 99.8777 22.1227H99.9061C99.9854 22.1227 100.053 22.1491 100.114 22.2038C100.172 22.2566 100.24 22.3189 100.32 22.3869L107.508 29.1847V22.4982C107.508 22.3359 107.589 22.2548 107.752 22.2548H109.339Z" fill="#CE2D4F"/>
<path d="M115.516 23.7589V22.5945C115.516 22.3774 115.626 22.2699 115.841 22.2699H123.525C123.623 22.2699 123.7 22.2982 123.757 22.3586C123.814 22.4171 123.842 22.4963 123.842 22.5945V23.7589C123.842 23.9797 123.736 24.091 123.525 24.091H120.714V33.1516C120.714 33.3687 120.602 33.4763 120.381 33.4763H118.957C118.739 33.4763 118.632 33.3687 118.632 33.1516V24.091H115.841C115.743 24.091 115.666 24.0627 115.605 24.0061C115.547 23.9495 115.516 23.8665 115.516 23.7589Z" fill="#CE2D4F"/>
</svg>
